<svg xmlns="http://www.w3.org/2000/svg" viewBox="0 0 32 32" fill="none">
  <defs>
    <linearGradient id="ig" x1="0" y1="0" x2="32" y2="32">
      <stop stop-color="#6c5ce7"/>
      <stop offset="1" stop-color="#00cec9"/>
    </linearGradient>
  </defs>
  <rect x="2" y="5" width="28" height="22" rx="6" stroke="url(#ig)" stroke-width="2" fill="url(#ig)" fill-opacity="0.08"/>
  <rect x="5" y="8" width="22" height="14" rx="3" fill="url(#ig)" fill-opacity="0.12"/>
  <path d="M11 19L14 11h2l3 8h-2l-0.6-1.8h-2.8L13.6 19H11zm2.8-3.2h1.4L14 12.5l-0.2 1.3z" fill="url(#ig)"/>
  <path d="M19.5 19V11h1.8l2.2 5.2 2.2-5.2h1.8v8h-1.6v-5.6L24 18.5h-1.6l-1.3-3.1v3.6h-1.6z" fill="url(#ig)"/>
  <line x1="10" y1="28" x2="22" y2="28" stroke="url(#ig)" stroke-width="2" stroke-linecap="round"/>
  <line x1="16" y1="27" x2="16" y2="28" stroke="url(#ig)" stroke-width="2" stroke-linecap="round"/>
</svg>